<svg width="600" height="130" xmlns="http://www.w3.org/2000/svg" version="1.1">

 <g>
  <title>Layer 1</title>
  <svg id="svg_2" y="2" x="-198" viewBox="0 0 565 130" data-id="lg_gHluJC4wWjPZHARjB1" data-version="2" height="130" width="1000" xml:space="preserve">
   <rect id="svg_3" fill="transparent" height="100%" width="100%"/>
   <path id="svg_4" d="m175.26,13.296l40.01,0q17.53,0 30.45,3.78q12.91,3.77 21.4,10.78q8.48,7.02 12.64,17.04q4.15,10.02 4.15,22.52q0,11.87 -4.12,21.96q-4.12,10.09 -12.57,17.45q-8.45,7.37 -21.36,11.53q-12.92,4.15 -30.45,4.15l-40.15,-0.07l0,-109.14zm45.46,90.01q9.91,0 17.39,-2.55q7.47,-2.55 12.46,-7.23q4.99,-4.68 7.5,-11.31q2.52,-6.63 2.52,-14.8q0,-8.03 -2.52,-14.49q-2.51,-6.46 -7.5,-10.96q-4.99,-4.51 -12.46,-6.95q-7.48,-2.44 -17.39,-2.44l-23.32,0l0,70.73l23.32,0z" fill="#686868"/>
   <rect id="svg_5" fill="none" y="13.8" x="175.76" height="109.21" width="108.65"/>
   <path id="svg_6" d="m303.32,13.296l22.27,0l0,109.14l-22.27,0l0,-109.14z" fill="#686868"/>
   <rect id="svg_7" fill="none" y="13.8" x="303.82001" height="109.14" width="22.27"/>
   <path id="svg_8" d="m386.69,32.716l-40.29,0l0,-19.42l102.71,0l0,19.42l-40.28,0l0,89.72l-22.14,0l0,-89.72z" fill="#686868"/>
   <rect id="svg_9" fill="none" y="13.8" x="346.9" height="109.14" width="102.71"/>
   <path id="svg_10" d="m472.71,13.296l22.14,0l0,89.73l63.47,0l0,19.41l-85.61,0l0,-109.14z" fill="#686868"/>
   <rect id="svg_11" fill="none" y="13.8" x="473.21001" height="109.14" width="85.61"/>
   <circle id="svg_12" transform="translate(21.36 17.1)scale(1.7417)" fill="#686868" r="9"/>
   <path id="svg_13" d="m21.354,48.454a15.675,15.675 0 0 0 -15.674,15.675l0,62.701l31.35,0l0,-62.7a15.675,15.675 0 0 0 -15.675,-15.675" fill="#686868"/>
   <circle id="svg_14" transform="translate(68.38 17.1)scale(1.7417)" fill="#686868" r="9"/>
   <path id="svg_15" d="m68.38,48.454a15.675,15.675 0 0 0 -15.675,15.675l0,62.701l31.35,0l0,-62.7a15.675,15.675 0 0 0 -15.675,-15.676" fill="#686868"/>
   <circle id="svg_16" transform="translate(115.4 17.1)scale(1.7417)" fill="#686868" r="9"/>
   <path id="svg_17" d="m115.406,48.454a15.675,15.675 0 0 0 -15.676,15.675l0,62.701l31.35,0l0,-62.7a15.675,15.675 0 0 0 -15.675,-15.675" fill="#686868"/>
  </svg>
  <path id="svg_22" d="m201,46.5" opacity="NaN" stroke="#000" fill="#fff"/>
 </g>
</svg>